{
    "asset" : {
        "generator" : "Khronos glTF Blender I/O v1.5.17",
        "version" : "2.0"
    },
    "extensionsUsed" : [
        "KHR_lights_punctual"
    ],
    "extensionsRequired" : [
        "KHR_lights_punctual"
    ],
    "extensions" : {
        "KHR_lights_punctual" : {
            "lights" : [
                {
                    "color" : [
                        1,
                        1,
                        1
                    ],
                    "intensity" : 2142.89990234375,
                    "spot" : {
                        "innerConeAngle" : 0.15659965942127485,
                        "outerConeAngle" : 0.7618361711502075
                    },
                    "type" : "spot",
                    "name" : "Spot"
                }
            ]
        }
    },
    "scene" : 0,
    "scenes" : [
        {
            "name" : "Scene",
            "nodes" : [
                1,
                2,
                3
            ]
        }
    ],
    "nodes" : [
        {
            "extensions" : {
                "KHR_lights_punctual" : {
                    "light" : 0
                }
            },
            "name" : "Spot_Orientation",
            "rotation" : [
                -0.7071067690849304,
                0,
                0,
                0.7071067690849304
            ]
        },
        {
            "children" : [
                0
            ],
            "name" : "Spot",
            "rotation" : [
                -0.09888594597578049,
                -0.08865033835172653,
                0.1818871945142746,
                0.9743098616600037
            ],
            "translation" : [
                -3.4644277095794678,
                4.872104167938232,
                -0.8059329986572266
            ]
        },
        {
            "mesh" : 0,
            "name" : "Cake Body",
            "scale" : [
                1,
                0.5861508250236511,
                1
            ]
        },
        {
            "mesh" : 1,
            "name" : "Kaars.001",
            "rotation" : [
                0,
                -0.6487341523170471,
                0,
                0.7610151171684265
            ],
            "scale" : [
                0.23941433429718018,
                0.23941433429718018,
                0.23941433429718018
            ],
            "translation" : [
                0,
                1.971927285194397,
                0
            ]
        }
    ],
    "materials" : [
        {
            "doubleSided" : true,
            "name" : "Material.001",
            "pbrMetallicRoughness" : {
                "baseColorTexture" : {
                    "index" : 0
                },
                "metallicFactor" : 0,
                "metallicRoughnessTexture" : {
                    "index" : 1
                }
            }
        },
        {
            "doubleSided" : true,
            "name" : "Kaars1",
            "pbrMetallicRoughness" : {
                "baseColorFactor" : [
                    0.8000000715255737,
                    0.024929629638791084,
                    0.014424430206418037,
                    1
                ],
                "metallicFactor" : 0,
                "roughnessFactor" : 0.4120529890060425
            }
        },
        {
            "doubleSided" : true,
            "name" : "Randje",
            "pbrMetallicRoughness" : {
                "metallicFactor" : 0,
                "roughnessFactor" : 0.15140585601329803
            }
        },
        {
            "doubleSided" : true,
            "name" : "Voetje",
            "pbrMetallicRoughness" : {
                "baseColorFactor" : [
                    0.800000011920929,
                    0.800000011920929,
                    0.800000011920929,
                    1
                ],
                "metallicFactor" : 0,
                "roughnessFactor" : 0.10000000149011612
            }
        }
    ],
    "meshes" : [
        {
            "name" : "Cylinder",
            "primitives" : [
                {
                    "attributes" : {
                        "POSITION" : 0,
                        "NORMAL" : 1,
                        "TEXCOORD_0" : 2
                    },
                    "indices" : 3,
                    "material" : 0
                }
            ]
        },
        {
            "name" : "Cylinder.001",
            "primitives" : [
                {
                    "attributes" : {
                        "POSITION" : 4,
                        "NORMAL" : 5,
                        "TEXCOORD_0" : 6
                    },
                    "indices" : 7,
                    "material" : 1
                },
                {
                    "attributes" : {
                        "POSITION" : 8,
                        "NORMAL" : 9,
                        "TEXCOORD_0" : 10
                    },
                    "indices" : 11,
                    "material" : 2
                },
                {
                    "attributes" : {
                        "POSITION" : 12,
                        "NORMAL" : 13,
                        "TEXCOORD_0" : 14
                    },
                    "indices" : 15,
                    "material" : 3
                }
            ]
        }
    ],
    "textures" : [
        {
            "sampler" : 0,
            "source" : 0
        },
        {
            "sampler" : 0,
            "source" : 1
        }
    ],
    "images" : [
        {
            "mimeType" : "image/png",
            "name" : "Cake Body_color",
            "uri" : "Cake%20Body_color.png"
        },
        {
            "mimeType" : "image/png",
            "name" : "Cake Body_roughness",
            "uri" : "Cake%20Body_roughness.png"
        }
    ],
    "accessors" : [
        {
            "bufferView" : 0,
            "componentType" : 5126,
            "count" : 70542,
            "max" : [
                1.0663516521453857,
                3.099381446838379,
                1.0659929513931274
            ],
            "min" : [
                -1.0662840604782104,
                7.897473892626294e-07,
                -1.0659984350204468
            ],
            "type" : "VEC3"
        },
        {
            "bufferView" : 1,
            "componentType" : 5126,
            "count" : 70542,
            "type" : "VEC3"
        },
        {
            "bufferView" : 2,
            "componentType" : 5126,
            "count" : 70542,
            "type" : "VEC2"
        },
        {
            "bufferView" : 3,
            "componentType" : 5125,
            "count" : 329223,
            "type" : "SCALAR"
        },
        {
            "bufferView" : 4,
            "componentType" : 5126,
            "count" : 687,
            "max" : [
                0.16955071687698364,
                1.3836140632629395,
                0.16955065727233887
            ],
            "min" : [
                -0.16955053806304932,
                -0.7832894325256348,
                -0.16955065727233887
            ],
            "type" : "VEC3"
        },
        {
            "bufferView" : 5,
            "componentType" : 5126,
            "count" : 687,
            "type" : "VEC3"
        },
        {
            "bufferView" : 6,
            "componentType" : 5126,
            "count" : 687,
            "type" : "VEC2"
        },
        {
            "bufferView" : 7,
            "componentType" : 5123,
            "count" : 3114,
            "type" : "SCALAR"
        },
        {
            "bufferView" : 8,
            "componentType" : 5126,
            "count" : 709,
            "max" : [
                0.16955071687698364,
                1.5404202938079834,
                0.16951948404312134
            ],
            "min" : [
                -0.16955053806304932,
                -0.7654337882995605,
                -0.1695196032524109
            ],
            "type" : "VEC3"
        },
        {
            "bufferView" : 9,
            "componentType" : 5126,
            "count" : 709,
            "type" : "VEC3"
        },
        {
            "bufferView" : 10,
            "componentType" : 5126,
            "count" : 709,
            "type" : "VEC2"
        },
        {
            "bufferView" : 11,
            "componentType" : 5123,
            "count" : 3252,
            "type" : "SCALAR"
        },
        {
            "bufferView" : 12,
            "componentType" : 5126,
            "count" : 1088,
            "max" : [
                0.42218536138534546,
                -0.6860134601593018,
                0.4221854507923126
            ],
            "min" : [
                -0.4221857488155365,
                -1.5292763710021973,
                -0.4221855700016022
            ],
            "type" : "VEC3"
        },
        {
            "bufferView" : 13,
            "componentType" : 5126,
            "count" : 1088,
            "type" : "VEC3"
        },
        {
            "bufferView" : 14,
            "componentType" : 5126,
            "count" : 1088,
            "type" : "VEC2"
        },
        {
            "bufferView" : 15,
            "componentType" : 5123,
            "count" : 4788,
            "type" : "SCALAR"
        }
    ],
    "bufferViews" : [
        {
            "buffer" : 0,
            "byteLength" : 846504,
            "byteOffset" : 0
        },
        {
            "buffer" : 0,
            "byteLength" : 846504,
            "byteOffset" : 846504
        },
        {
            "buffer" : 0,
            "byteLength" : 564336,
            "byteOffset" : 1693008
        },
        {
            "buffer" : 0,
            "byteLength" : 1316892,
            "byteOffset" : 2257344
        },
        {
            "buffer" : 0,
            "byteLength" : 8244,
            "byteOffset" : 3574236
        },
        {
            "buffer" : 0,
            "byteLength" : 8244,
            "byteOffset" : 3582480
        },
        {
            "buffer" : 0,
            "byteLength" : 5496,
            "byteOffset" : 3590724
        },
        {
            "buffer" : 0,
            "byteLength" : 6228,
            "byteOffset" : 3596220
        },
        {
            "buffer" : 0,
            "byteLength" : 8508,
            "byteOffset" : 3602448
        },
        {
            "buffer" : 0,
            "byteLength" : 8508,
            "byteOffset" : 3610956
        },
        {
            "buffer" : 0,
            "byteLength" : 5672,
            "byteOffset" : 3619464
        },
        {
            "buffer" : 0,
            "byteLength" : 6504,
            "byteOffset" : 3625136
        },
        {
            "buffer" : 0,
            "byteLength" : 13056,
            "byteOffset" : 3631640
        },
        {
            "buffer" : 0,
            "byteLength" : 13056,
            "byteOffset" : 3644696
        },
        {
            "buffer" : 0,
            "byteLength" : 8704,
            "byteOffset" : 3657752
        },
        {
            "buffer" : 0,
            "byteLength" : 9576,
            "byteOffset" : 3666456
        }
    ],
    "samplers" : [
        {
            "magFilter" : 9729,
            "minFilter" : 9987
        }
    ],
    "buffers" : [
        {
            "byteLength" : 3676032,
            "uri" : "cake.bin"
        }
    ]
}
